<?xml version="1.0" encoding="UTF-8" standalone="no"?>
<svg
   xmlns:dc="http://purl.org/dc/elements/1.1/"
   xmlns:cc="http://creativecommons.org/ns#"
   xmlns:rdf="http://www.w3.org/1999/02/22-rdf-syntax-ns#"
   xmlns:svg="http://www.w3.org/2000/svg"
   xmlns="http://www.w3.org/2000/svg"
   viewBox="0 0 207.28 192"
   height="192"
   width="207.28"
   xml:space="preserve"
   id="svg2"
   version="1.1"><metadata
     id="metadata8"><rdf:RDF><cc:Work
         rdf:about=""><dc:format>image/svg+xml</dc:format><dc:type
           rdf:resource="http://purl.org/dc/dcmitype/StillImage" /><dc:title></dc:title></cc:Work></rdf:RDF></metadata><defs
     id="defs6" /><g
     transform="matrix(1.3333333,0,0,-1.3333333,0,192)"
     id="g10"><g
       style="fill:#e7e8eb;fill-opacity:1"
       transform="scale(0.1)"
       id="g12"><path
         id="path14"
         style="fill:#e7e8eb;fill-opacity:1;fill-rule:nonzero;stroke:none"
         d="m 1227.08,212.93 h -213.44 v 334.199 c 0,79.687 -1.46,182.203 -110.995,182.203 -111.122,0 -128.18,-86.812 -128.18,-176.441 V 212.93 H 561.063 v 687.215 h 204.843 v -93.899 h 2.864 c 28.515,54.027 98.195,110.984 202.097,110.984 216.283,0 256.213,-142.343 256.213,-327.359 z M 320.344,994.086 c -68.457,0 -123.86,55.494 -123.86,123.864 0,68.3 55.403,123.8 123.86,123.8 68.289,0 123.777,-55.5 123.777,-123.8 0,-68.37 -55.488,-123.864 -123.777,-123.864 z M 427.102,212.93 H 213.496 V 900.145 H 427.102 Z M 1333.45,1440 H 106.289 C 47.6484,1440 0,1393.52 0,1336.23 V 103.898 C 0,46.5508 47.6484,0 106.289,0 H 1333.45 c 58.74,0 106.59,46.5508 106.59,103.898 V 1336.23 c 0,57.29 -47.85,103.77 -106.59,103.77" /><path
         id="path16"
         style="fill:#e7e8eb;fill-opacity:1;fill-rule:nonzero;stroke:none"
         d="m 1475.12,249.102 h 11.61 V 212.93 h 6.31 v 36.172 h 11.58 v 6.308 h -29.5 v -6.308" /><path
         id="path18"
         style="fill:#e7e8eb;fill-opacity:1;fill-rule:nonzero;stroke:none"
         d="m 1545.64,255.41 -12.39,-31.18 -12.38,31.18 h -8.99 v -42.48 h 6.28 v 32.32 l 13,-32.32 h 4.19 l 13,32.32 v -32.32 h 6.28 v 42.48 h -8.99" /></g></g></svg>